<?xml version="1.0" standalone="no"?><!DOCTYPE svg PUBLIC "-//W3C//DTD SVG 1.1//EN" "http://www.w3.org/Graphics/SVG/1.1/DTD/svg11.dtd"><svg t="1733015920179" class="icon" viewBox="0 0 1024 1024" version="1.1" xmlns="http://www.w3.org/2000/svg" p-id="7829" xmlns:xlink="http://www.w3.org/1999/xlink" width="200" height="200"><path d="M645.12 389.12h204.8v34.304h-204.8V389.12z m0 88.576h204.8v272.896h-204.8V477.696z" fill="#CCCCCC" p-id="7830"></path><path d="M754.176 51.2h-542.72v92.16h68.096v-24.064h634.88v798.72h-634.88v-122.88H211.456v190.976H983.04V272.896L754.176 51.2z" fill="#CCCCCC" p-id="7831"></path><path d="M341.504 815.616h512v34.304h-512v-34.304z" fill="#CCCCCC" p-id="7832"></path><path d="M542.72 198.144H68.096c-20.48 0-34.304 16.896-34.304 34.304V706.56c0 20.48 16.896 34.304 34.304 34.304H542.72c20.48 0 34.304-16.896 34.304-34.304V231.936c3.072-16.896-13.824-33.792-34.304-33.792zM426.496 645.12H348.16l-47.616-177.664-48.128 177.664H174.08L61.44 296.96h129.536l61.44 204.8 47.616-204.8h81.92l54.784 204.8L501.76 296.96h40.96l-116.224 348.16z" fill="#39AC83" p-id="7833"></path><path d="M645.12 286.72h204.8v34.304h-204.8V286.72z" fill="#CCCCCC" p-id="7834"></path></svg>