<?xml version="1.0" standalone="no"?><!DOCTYPE svg PUBLIC "-//W3C//DTD SVG 1.1//EN" "http://www.w3.org/Graphics/SVG/1.1/DTD/svg11.dtd"><svg t="1733272830508" class="icon" viewBox="0 0 1228 1024" version="1.1" xmlns="http://www.w3.org/2000/svg" p-id="5703" xmlns:xlink="http://www.w3.org/1999/xlink" width="239.84375" height="200"><path d="M409.6 0C184.32 0 0 184.32 0 409.6s184.32 409.6 409.6 409.6 409.6-184.32 409.6-409.6S634.88 0 409.6 0z" fill="#2A82E4" opacity=".1" p-id="5704"></path><path d="M696.32 266.24c-5.12 2.56-5.12 7.68-5.12 10.24 0 5.12 2.56 10.24 5.12 12.8 2.56 2.56 7.68 5.12 12.8 5.12s7.68-2.56 12.8-5.12c2.56-2.56 5.12-7.68 5.12-12.8s-2.56-10.24-5.12-12.8c-2.56-2.56-7.68-5.12-12.8-5.12-7.68 2.56-10.24 2.56-12.8 7.68zM706.56 110.08c-33.28 0-61.44 28.16-61.44 61.44s28.16 61.44 61.44 61.44S768 204.8 768 171.52s-28.16-61.44-61.44-61.44z m0 87.04c-12.8 0-25.6-12.8-25.6-25.6s10.24-25.6 25.6-25.6 25.6 12.8 25.6 25.6c2.56 15.36-10.24 25.6-25.6 25.6z" fill="#2A82E4" p-id="5705"></path><path d="M1006.08 294.4c-10.24 0-17.92 7.68-17.92 17.92v28.16l-184.32 99.84c-5.12 2.56-7.68 7.68-7.68 15.36v117.76l-23.04-7.68V537.6c0-10.24-7.68-17.92-17.92-17.92h-30.72v-92.16l128-66.56c5.12-2.56 10.24-10.24 10.24-15.36v-48.64c7.68-2.56 15.36-7.68 20.48-12.8 10.24-10.24 15.36-23.04 15.36-38.4s-5.12-28.16-15.36-38.4c-20.48-20.48-56.32-20.48-76.8 0-7.68 12.8-12.8 28.16-12.8 40.96 0 15.36 5.12 28.16 15.36 38.4 5.12 5.12 12.8 10.24 20.48 12.8v38.4l-102.4 53.76V332.8c0-10.24-7.68-17.92-17.92-17.92-10.24 0-17.92 7.68-17.92 17.92v112.64l-102.4-79.36v-28.16c23.04-7.68 35.84-28.16 35.84-51.2 0-28.16-25.6-53.76-53.76-53.76-30.72 0-53.76 25.6-53.76 53.76 0 23.04 15.36 43.52 35.84 51.2v35.84c0 5.12 2.56 10.24 7.68 12.8l130.56 102.4v30.72h-30.72c-5.12 0-7.68 2.56-12.8 5.12s-7.68 10.24-7.68 15.36v28.16c-2.56 0-5.12 2.56-7.68 2.56V512c0-5.12-2.56-10.24-7.68-12.8l-202.24-156.16v-69.12c25.6-7.68 43.52-30.72 43.52-58.88 5.12-33.28-23.04-61.44-56.32-61.44-33.28 0-61.44 28.16-61.44 61.44 0 28.16 17.92 51.2 43.52 58.88v76.8c0 5.12 2.56 10.24 7.68 12.8l202.24 156.16V588.8h61.44l12.8-46.08H742.4l10.24 38.4 76.8 15.36v-128l184.32-99.84c5.12-2.56 7.68-10.24 7.68-15.36v-38.4c2.56-12.8-5.12-20.48-15.36-20.48z m-174.08-58.88c2.56-2.56 7.68-5.12 12.8-5.12s10.24 2.56 12.8 5.12c7.68 7.68 7.68 20.48 0 28.16-7.68 7.68-20.48 7.68-25.6 0-7.68-10.24-7.68-20.48 0-28.16z m-261.12 69.12c-10.24 0-17.92-7.68-17.92-17.92 0-10.24 7.68-17.92 17.92-17.92 10.24 0 17.92 7.68 17.92 17.92 0 10.24-7.68 17.92-17.92 17.92z m-163.84-64c-15.36 0-25.6-12.8-25.6-25.6s12.8-25.6 25.6-25.6c15.36 0 25.6 12.8 25.6 25.6 2.56 15.36-10.24 25.6-25.6 25.6zM1044.48 125.44c-20.48-20.48-56.32-20.48-76.8 0-20.48 20.48-20.48 56.32 0 76.8 10.24 10.24 23.04 15.36 38.4 15.36 12.8 0 28.16-5.12 38.4-15.36 10.24-10.24 15.36-23.04 15.36-38.4s-5.12-28.16-15.36-38.4z m-25.6 51.2c-7.68 7.68-20.48 7.68-25.6 0-7.68-7.68-7.68-17.92 0-25.6 2.56-2.56 7.68-5.12 12.8-5.12s10.24 2.56 12.8 5.12c7.68 7.68 7.68 20.48 0 25.6zM993.28 243.2c-2.56 2.56-5.12 7.68-5.12 12.8s2.56 10.24 5.12 12.8c2.56 2.56 7.68 5.12 12.8 5.12s7.68-2.56 12.8-5.12c2.56-2.56 5.12-7.68 5.12-12.8s-2.56-7.68-5.12-12.8c-2.56-2.56-7.68-5.12-12.8-5.12s-7.68 2.56-12.8 5.12z" fill="#2A82E4" p-id="5706"></path><path d="M1090.56 791.04H1075.2V481.28c0-48.64-40.96-89.6-89.6-89.6H972.8l-64 35.84h76.8c30.72 0 53.76 25.6 53.76 53.76v309.76h-46.08v-30.72c0-10.24-7.68-17.92-17.92-17.92H947.2c-5.12-20.48-12.8-38.4-23.04-56.32l20.48-20.48c5.12-5.12 5.12-17.92 0-25.6l-69.12-69.12c-5.12-7.68-17.92-7.68-25.6 0l-17.92 17.92-33.28-12.8c-7.68-2.56-17.92-7.68-25.6-7.68V537.6c0-10.24-7.68-17.92-17.92-17.92h-97.28c-10.24 0-17.92 7.68-17.92 17.92v28.16c-2.56 0-7.68 2.56-10.24 2.56l-28.16 10.24h-2.56c-5.12 2.56-10.24 5.12-12.8 7.68l-23.04-15.36c-7.68-7.68-17.92-7.68-25.6 0L471.04 640c-2.56 2.56-5.12 7.68-5.12 12.8s2.56 10.24 5.12 12.8l20.48 20.48c-10.24 17.92-17.92 35.84-23.04 56.32h-28.16c-10.24 0-17.92 7.68-17.92 17.92v30.72h-46.08V481.28c0-30.72 25.6-53.76 53.76-53.76h46.08c-12.8-10.24-30.72-23.04-43.52-33.28h-2.56c-51.2 0-89.6 40.96-89.6 89.6V793.6h-15.36c-5.12 0-7.68 2.56-12.8 5.12-2.56 2.56-5.12 7.68-5.12 12.8v25.6c0 43.52 33.28 79.36 76.8 79.36h645.12c43.52 0 79.36-35.84 79.36-79.36v-25.6c0-12.8-7.68-20.48-17.92-20.48z m-632.32-12.8h25.6c7.68 0 15.36-5.12 17.92-12.8 5.12-25.6 15.36-48.64 30.72-71.68 5.12-7.68 2.56-15.36-2.56-23.04l-17.92-17.92 43.52-43.52 17.92 17.92c5.12 5.12 15.36 5.12 23.04 2.56 10.24-5.12 20.48-12.8 30.72-15.36 12.8-5.12 25.6-10.24 38.4-12.8 7.68-2.56 12.8-10.24 12.8-17.92v-25.6h61.44v25.6c0 7.68 5.12 15.36 12.8 17.92 17.92 5.12 35.84 10.24 53.76 20.48 5.12 2.56 10.24 7.68 17.92 10.24 5.12 5.12 15.36 2.56 23.04-2.56l17.92-17.92 43.52 43.52-17.92 17.92c-5.12 5.12-7.68 15.36-2.56 23.04 12.8 20.48 23.04 46.08 28.16 71.68 2.56 7.68 10.24 12.8 17.92 12.8h25.6v12.8h-122.88c-7.68-64-64-112.64-128-112.64s-120.32 48.64-128 112.64h-122.88v-15.36z m156.16 12.8c7.68-46.08 46.08-76.8 92.16-76.8s84.48 30.72 94.72 76.8H614.4z m148.48 33.28c-2.56 5.12-7.68 7.68-12.8 7.68H665.6c-5.12 0-10.24-2.56-12.8-7.68h110.08z m309.76 10.24c0 23.04-20.48 43.52-43.52 43.52H384c-23.04 0-43.52-20.48-43.52-43.52v-7.68H614.4c2.56 25.6 25.6 43.52 51.2 43.52h84.48c25.6 0 46.08-17.92 51.2-43.52h271.36v7.68z" fill="#333333" p-id="5707"></path></svg>