<?xml version="1.0" standalone="no"?><!DOCTYPE svg PUBLIC "-//W3C//DTD SVG 1.1//EN" "http://www.w3.org/Graphics/SVG/1.1/DTD/svg11.dtd"><svg t="1733138682788" class="icon" viewBox="0 0 1024 1024" version="1.1" xmlns="http://www.w3.org/2000/svg" p-id="7419" xmlns:xlink="http://www.w3.org/1999/xlink" width="200" height="200"><path d="M7.68 819.712v-12.288c9.216-11.264 20.48-14.336 33.28-13.312 79.36 5.12 146.432-30.72 212.48-66.048 122.88-66.048 251.904-114.688 393.216-129.024 30.72-3.072 60.928-3.072 91.648-8.192 18.432-3.072 25.6-11.264 16.384-29.696-43.52-81.92-78.848-166.912-131.584-243.2-10.24-15.36-22.528-29.696-34.304-41.472-45.568-45.568-96.256-41.472-137.216 9.216-35.84 45.568-62.464 96.256-88.576 146.944-35.328 68.096-76.288 133.12-135.168 182.784-53.76 45.568-113.664 73.216-185.856 69.12-12.288-1.024-25.6 1.024-31.232-15.36-3.072-18.432 3.072-37.376-3.072-55.808v-6.144c13.312-15.36 31.232-17.408 49.664-19.456 68.096-9.216 107.52-56.832 143.36-107.52 11.264-15.36 3.072-25.6-20.48-25.6-44.544-2.048-89.6-1.024-134.144-1.024-14.336 0-29.696 0-38.4-13.312v-12.288c5.12-15.36 5.12-30.72 0-45.568v-12.288c10.24-13.312 24.576-13.312 39.424-13.312 59.904-2.048 120.832-3.072 180.736-1.024 36.352 2.048 56.832-13.312 72.192-43.52 14.336-30.72 33.28-57.856 52.736-85.504 35.328-48.64 80.384-84.48 143.36-87.552h62.976c88.576 4.096 129.024 71.168 172.544 133.12 14.336 20.48 26.624 41.472 38.4 64 10.24 18.432 23.552 25.6 43.52 25.6 56.832 0 113.664-1.024 171.52 0 14.336 0 29.696 0 38.4 13.312v6.144c-5.12 15.36-5.12 30.72 0 45.568v6.144c-10.24 13.312-24.576 13.312-38.4 13.312-39.424 2.048-80.384-3.072-119.808 5.12-26.624 6.144-31.232 12.288-19.456 36.352 13.312 26.624 24.576 53.76 37.376 80.384 11.264 23.552 29.696 34.304 54.784 34.304 19.456 0 38.4-1.024 56.832 1.024 12.288 1.024 23.552 3.072 26.624 17.408-1.024 74.24 13.312 67.072-66.048 67.072-31.232 0-59.904 10.24-90.624 10.24-118.784-2.048-235.52 10.24-350.208 40.448-62.976 17.408-121.856 44.544-178.688 74.24-65.024 33.28-132.096 58.88-205.312 62.976H78.848c-15.36-6.144-30.72-3.072-45.568-3.072-16.384 1.024-22.528-5.12-21.504-21.504-0.512-9.216 1.536-21.504-4.096-31.744z" fill="#188EFE" p-id="7420"></path><path d="M1014.784 619.52c2.048 0 4.096-1.024 6.144-1.024v69.12c-55.808 1.024-111.616 3.072-166.4-1.024 39.424-7.168 79.36-2.048 118.784-3.072 42.496-1.024 42.496 0 42.496-41.472-1.024-7.168-1.024-15.36-1.024-22.528z" fill="#88C5FE" p-id="7421"></path><path d="M7.68 819.712c2.048 39.424 20.48 59.904 61.952 53.76 2.048-1.024 5.12 3.072 8.192 4.096h-12.288c-19.456 0-45.568 8.192-55.808-2.048-9.216-10.24-2.048-36.352-2.048-55.808z" fill="#2495FE" p-id="7422"></path><path d="M13.312 671.232c-2.048 0-4.096-1.024-6.144-1.024v-57.856c11.264 19.456 4.096 39.936 6.144 58.88zM7.68 385.024c8.192 15.36 8.192 30.72 0 45.568v-45.568zM1020.928 430.592c-8.192-15.36-8.192-30.72 0-45.568v45.568z" fill="#2494FE" p-id="7423"></path></svg>