<?xml version="1.0" standalone="no"?><!DOCTYPE svg PUBLIC "-//W3C//DTD SVG 1.1//EN" "http://www.w3.org/Graphics/SVG/1.1/DTD/svg11.dtd"><svg t="1733138587177" class="icon" viewBox="0 0 1024 1024" version="1.1" xmlns="http://www.w3.org/2000/svg" p-id="6425" xmlns:xlink="http://www.w3.org/1999/xlink" width="200" height="200"><path d="M514.816 1000.7552c-77.0048-71.4752-73.8304-152.448-73.8304-152.448h147.712s3.1232 80.9728-73.856 152.448h-0.0256z m0-896.4864c-64.9728 85.76-191.1296 280.7552-191.1296 500.5824 0 63.616 11.9552 116.8896 23.9872 154.4704h334.2848c15.8976-49.9456 23.9872-102.0672 23.9616-154.4704 0-219.8272-126.1824-414.8224-191.104-500.608v0.0256z m242.304 500.5824c0 144.7936-55.5008 240.384-55.5008 240.384l-59.392-34.7136h-254.848l-59.392 34.7392s-55.5008-95.5648-55.5008-240.4096C272.4864 285.7984 514.7648 23.3728 514.816 23.296c0.0768 0.0768 242.304 262.5024 242.304 581.5552z m33.536 95.0784c0 55.5008-24.6528 115.8656-41.6256 141.312h117.6576l-13.0304-80-62.976-61.312zM175.9488 761.2672l-13.0304 80.0256h117.6832c-17.024-25.4464-41.6768-85.7856-41.6768-141.312l-62.976 61.2864z m292.7104-231.0144a11.4176 11.4176 0 1 0-2.5344 22.7072 11.4176 11.4176 0 0 0 2.5344-22.7072z m36.48 0a11.392 11.392 0 1 0-2.5344 22.656 11.392 11.392 0 0 0 2.5344-22.656z m36.4288 0a11.4176 11.4176 0 1 0-2.5344 22.7072 11.4176 11.4176 0 0 0 2.56-22.7072z m124.5184 143.872a58.8544 58.8544 0 1 1-109.952-29.2864l-14.6688-20.096a90.3936 90.3936 0 0 1-95.104-14.0288l-16.384 14.2592a35.2 35.2 0 1 1-34.432-27.8528c4.2496 0 8.2432 0.8448 12.0064 2.2272l17.4592-15.1808a90.368 90.368 0 0 1 7.9104-97.3056l-18.3808-19.968c-1.3312 0.1536-2.6368 0.384-3.9936 0.384a29.952 29.952 0 1 1 29.184-23.3472l18.5344 20.1728a90.24 90.24 0 0 1 91.52-1.4848l15.6672-15.6672a46.592 46.592 0 1 1 28.9024 28.9024l-14.3872 14.3872a90.4192 90.4192 0 0 1-5.632 110.1312l13.4144 18.304c6.144-2.176 12.6976-3.4304 19.584-3.4304a58.9312 58.9312 0 0 1 58.8032 58.9312l-0.0256-0.0768h-0.0256z m-160.9472-61.056a71.424 71.424 0 1 0 2.944-142.848 71.424 71.424 0 0 0-2.9696 142.848z" fill="#DA7300" p-id="6426"></path></svg>