<?xml version="1.0" standalone="no"?><!DOCTYPE svg PUBLIC "-//W3C//DTD SVG 1.1//EN" "http://www.w3.org/Graphics/SVG/1.1/DTD/svg11.dtd"><svg t="1733123403245" class="icon" viewBox="0 0 1653 1024" version="1.1" xmlns="http://www.w3.org/2000/svg" p-id="9733" xmlns:xlink="http://www.w3.org/1999/xlink" width="322.8515625" height="200"><path d="M397.016304 923.753383h-63.191762c-2.315928-107.856096-8.60202-209.756947-18.527428-304.710013l-97.930688 304.710013H168.731929l-96.276454-304.710013c-7.278632 91.31375-11.579642 192.883754-13.564723 304.710013H0q5.624398-204.132549 28.121988-382.459039h79.072414L198.508152 822.514226l92.637137-281.219882h75.763945q24.813519 209.095253 29.445376 382.459039z" fill="#01758F" p-id="9734"></path><path d="M674.266022 641.540961q-38.70909 212.403722-102.562545 308.349329c-33.084692 49.627038-69.477853 74.10971-109.179483 74.10971a104.547627 104.547627 0 0 1-38.70909-9.263714v-33.084692a231.592844 231.592844 0 0 0 26.467754 1.654235 66.169384 66.169384 0 0 0 45.987721-16.211499 55.913129 55.913129 0 0 0 18.858275-40.694171 277.249719 277.249719 0 0 0-15.880652-66.169384L430.100996 641.540961h62.530067l50.288732 163.107531a229.607762 229.607762 0 0 1 14.226418 77.749026 1069.297244 1069.297244 0 0 0 57.567364-240.856557zM1578.801501 468.838869a195.199683 195.199683 0 0 0-81.057496 11.910489c-6.286091 2.646775-16.211499 2.646775-17.20404 10.256254s3.639316 8.932867 6.616939 13.564724a96.276454 96.276454 0 0 0 21.835897 25.80606c8.60202 6.616938 17.534887 13.233877 26.7986 19.189121 16.211499 9.925408 33.084692 15.880652 50.619579 26.136907 9.263714 5.955245 18.527428 13.233877 27.791141 19.519968s7.278632 8.932867 13.233877 10.917948c-2.977622-3.970163-3.639316-9.263714-6.616939-13.564723l-12.572183-12.241336a203.801703 203.801703 0 0 0-43.671793-42.348406c-13.233877-9.263714-42.679253-21.835897-47.972803-37.385702a139.948247 139.948247 0 0 0 28.783682-6.616938c14.226418-3.639316 27.129447-2.977622 42.017558-6.616939l20.181663-5.955244v-3.970163c-7.609479-7.278632-13.233877-17.534887-21.174203-24.482672a526.046602 526.046602 0 0 0-68.81616-51.61212c-13.233877-8.60202-29.776223-13.895571-43.671793-21.174203-4.962704-2.646775-13.233877-3.639316-16.211499-7.940326a159.799062 159.799062 0 0 1-17.20404-33.084692c-12.241336-23.159284-23.820978-48.634497-33.084692-73.117169-7.609479-16.211499-12.241336-33.084692-21.174203-47.972803A421.829823 421.829823 0 0 0 1224.133603 61.235464a198.508152 198.508152 0 0 0-53.597201-17.20404l-33.084692-1.654235a174.02548 174.02548 0 0 1-19.189122-14.888111c-24.482672-16.542346-86.020199-49.296191-103.555085-5.955245-11.579642 27.460294 16.542346 54.258895 26.136906 68.154466a182.296653 182.296653 0 0 1 21.50505 33.084692c2.977622 7.278632 3.639316 14.888111 6.616938 22.166743A487.337513 487.337513 0 0 0 1091.794835 198.536935a205.455937 205.455937 0 0 0 15.549805 25.80606c3.308469 4.631857 8.932867 6.947785 10.256255 14.226418a132.338768 132.338768 0 0 0-9.594561 33.084692 185.274275 185.274275 0 0 0 12.241336 140.940787c6.616938 10.587101 22.497591 33.084692 44.00264 24.813519s14.557264-33.084692 20.181662-52.60466c0-4.962704 0-8.271173 2.646776-11.579642 5.955245 11.579642 11.910489 22.828437 17.20404 33.084692a244.826721 244.826721 0 0 0 52.935507 58.890752c9.925408 7.609479 17.865734 20.512509 30.437916 25.144366a57.567364 57.567364 0 0 0-9.59456-8.271173 220.013202 220.013202 0 0 1-21.835897-25.144366 555.822825 555.822825 0 0 1-46.980263-76.425639c-6.616938-12.90303-12.572183-27.460294-17.865733-40.363324-2.646775-4.962704-2.646775-12.572183-6.947786-15.218958a152.851277 152.851277 0 0 0-19.850815 28.783682 235.893854 235.893854 0 0 0-11.910489 63.191761h-1.654235c-13.233877-3.308469-17.865734-17.20404-22.828437-29.114528a181.965806 181.965806 0 0 1-3.308469-112.487953c2.977622-8.60202 15.549805-36.393161 10.587101-44.664334s-10.917948-12.90303-15.549805-19.189122a162.776684 162.776684 0 0 1-14.888111-26.7986c-10.256255-23.490131-15.218958-49.627038-26.136907-73.117169a244.495874 244.495874 0 0 0-20.843356-33.084692 198.508152 198.508152 0 0 1-23.159284-33.084692c-1.985082-4.631857-4.962704-12.241336-1.654235-17.20404a15.218958 15.218958 0 0 1 5.955245-5.293551c5.293551-4.631857 20.843356 0 26.136906 3.639316a202.478315 202.478315 0 0 1 41.355865 21.174203c5.955245 4.30101 12.241336 12.241336 19.850815 14.226418h8.932867c13.233877 2.977622 28.452835 0 41.025018 4.631857a253.759587 253.759587 0 0 1 60.21414 29.114528 371.541091 371.541091 0 0 1 129.691992 144.580104c5.293551 9.594561 7.278632 18.527428 11.910489 28.452835 8.60202 20.512509 19.519968 41.686712 28.452835 61.868374a276.257178 276.257178 0 0 0 29.776223 56.243977c6.286091 8.932867 31.430457 13.564724 42.679253 17.865733s21.174203 7.278632 28.783682 11.91049c14.226418 8.932867 28.452835 18.858274 41.686712 28.452835 6.947785 5.293551 27.791141 15.549805 29.114529 24.151825z" fill="#01758F" p-id="9735"></path><path d="M1134.804934 105.899798a172.371245 172.371245 0 0 0 13.564724 17.20404c3.308469 6.616938 6.286091 13.233877 9.594561 20.181662a23.490131 23.490131 0 0 0 8.932867-20.843356 60.214139 60.214139 0 0 1-4.962704-8.932867c-2.646775-4.30101-7.940326-6.286091-11.248795-9.594561a74.10971 74.10971 0 0 0-15.880653 1.985082z" fill="#01758F" p-id="9736"></path><path d="M953.831669 817.882369a101.900851 101.900851 0 0 1-35.40062 79.734108 139.6174 139.6174 0 0 1-95.61476 31.09961A189.575285 189.575285 0 0 1 714.629346 893.315467l16.2115-33.084692a184.943428 184.943428 0 0 0 82.050036 22.828437 85.689352 85.689352 0 0 0 53.928047-15.549805 51.281273 51.281273 0 0 0 20.51251-42.348406c0-22.828437-15.549805-42.017559-44.664335-58.559904s-80.064955-45.326028-80.064954-45.326028a91.644597 91.644597 0 0 1-43.671794-81.388343 95.61476 95.61476 0 0 1 33.084692-75.10225 122.082513 122.082513 0 0 1 84.035118-28.783682 174.02548 174.02548 0 0 1 96.6073 28.452835l-14.888111 33.084692a186.266816 186.266816 0 0 0-73.448016-15.880653 66.169384 66.169384 0 0 0-44.995181 14.226418 47.972803 47.972803 0 0 0-17.20404 36.393161c0 22.497591 16.211499 42.348406 45.987722 58.890752s81.719189 45.987722 81.719189 45.987722a90.652056 90.652056 0 0 1 44.664334 81.057495zM1138.775097 535.669947q148.21942 0 148.21942 189.906131a235.23216 235.23216 0 0 1-44.664334 155.8289 123.405901 123.405901 0 0 1-11.248795 11.579642l-5.955245 5.293551 69.808701 34.738926-24.813519 43.0101-91.31375-53.266354a168.731929 168.731929 0 0 1-49.957885 6.947785 134.654696 134.654696 0 0 1-108.848637-42.679253 227.291834 227.291834 0 0 1-39.370783-147.888573A231.592844 231.592844 0 0 1 1025.625451 583.973597a140.279094 140.279094 0 0 1 113.149646-48.30365z m-6.286091 46.980262q-87.674434 0-87.674434 144.580104a251.112812 251.112812 0 0 0 20.181662 114.803881l2.977623 5.293551a73.448016 73.448016 0 0 0 66.169384 34.738926c58.559905 0 87.674434-48.634497 87.674433-145.903491a233.908772 233.908772 0 0 0-23.159284-119.104891 73.448016 73.448016 0 0 0-66.169384-34.40808z" fill="#F69109" p-id="9737"></path><path d="M1523.880912 923.753383h-181.304112V541.294344h60.875833V876.773121h120.428279v46.980262zM1567.221858 923.753383h10.256255v-39.039936h13.233877v-7.940326h-37.054855v7.940326h13.89557v39.039936h-0.330847zM1644.309191 923.753383h9.263713v-46.649415h-14.226417l-11.579642 31.761304-12.90303-31.761304h-13.564724v46.649415h8.932867v-35.731467h0.661694l13.233877 35.731467h6.616938l13.564724-35.731467v35.731467z" fill="#F69109" p-id="9738"></path></svg>