<?xml version="1.0" standalone="no"?><!DOCTYPE svg PUBLIC "-//W3C//DTD SVG 1.1//EN" "http://www.w3.org/Graphics/SVG/1.1/DTD/svg11.dtd"><svg t="1733058466501" class="icon" viewBox="0 0 1024 1024" version="1.1" xmlns="http://www.w3.org/2000/svg" p-id="4737" xmlns:xlink="http://www.w3.org/1999/xlink" width="200" height="200"><path d="M1020.598007 329.993355C1020.598007 183.707641 901.528239 68.039867 758.644518 68.039867c-64.637874 0-122.471761 23.813953-166.697674 57.833887l-88.451827-88.451827-54.431894 54.431894c-10.20598-6.803987-23.813953-10.20598-37.421927-13.607974V0H248.345515v78.245847c-13.607973 3.401993-27.215947 10.20598-37.421927 17.009967L153.089701 37.421927 37.421927 153.089701l54.431894 54.431894c-3.401993 13.607973-6.803987 27.215947-13.607974 40.82392H0v163.295681h78.245847c3.401993 13.607973 10.20598 23.813953 13.607974 37.421927l-54.431894 54.431894 115.667774 115.667774 54.431894-54.431894c10.20598 6.803987 23.813953 10.20598 37.421927 13.607973v78.245848H408.239203V578.33887c13.607973-3.401993 23.813953-10.20598 37.421927-13.607973l54.431893 54.431894 88.451827-88.451828c23.813953 20.41196 54.431894 37.421927 85.049834 47.627907v47.627907h-34.019933v34.019934h34.019933v34.019934h-34.019933v34.019933h34.019933v214.325581c0 44.225914 37.421927 81.647841 81.647841 81.647841s81.647841-37.421927 81.64784-81.647841v-214.325581h34.019934v-34.019933h-34.019934v-34.019934h34.019934v-34.019934h-34.019934V578.33887c108.863787-34.019934 183.707641-132.677741 183.707642-248.345515z m-517.10299 244.943522l-51.029901-51.0299-10.20598 6.803986c-17.009967 10.20598-34.019934 17.009967-51.0299 20.411961l-13.607974 3.401993v71.44186H278.963455v-71.44186l-13.607973-3.401993c-17.009967-3.401993-37.421927-13.607973-51.029901-20.411961l-10.20598-6.803986-51.0299 51.0299-71.44186-71.44186L136.079734 452.465116l-6.803986-10.20598c-10.20598-17.009967-17.009967-34.019934-20.411961-51.0299l-3.401993-13.607974H34.019934V278.963455h71.44186l3.401993-13.607973c3.401993-17.009967 13.607973-37.421927 20.411961-51.029901L136.079734 204.119601 85.049834 153.089701l71.44186-71.44186L204.119601 136.079734l10.20598-6.803986c17.009967-10.20598 34.019934-17.009967 51.029901-20.411961l13.607973-3.401993V34.019934h98.657807v71.44186l13.607974 3.401993c17.009967 3.401993 34.019934 10.20598 51.0299 20.411961l10.20598 6.803986 51.029901-51.0299 64.637873 64.637874c-44.225914 47.627907-71.44186 112.265781-71.44186 180.305647s27.215947 132.677741 71.44186 180.305648l-64.637873 64.637874z m302.777408 364.013289c0 27.215947-23.813953 51.0299-51.0299 51.0299s-51.0299-23.813953-51.0299-51.0299v-214.325581h98.657807v214.325581z m0-248.345515h-98.657807v-34.019933h98.657807v34.019933z m0-64.637874h-98.657807v-37.421927c17.009967 3.401993 34.019934 3.401993 51.0299 3.401994s34.019934-3.401993 51.029901-3.401994v37.421927z m-47.627907-64.637873c-125.873754 0-231.335548-102.059801-231.335548-231.335549s102.059801-231.335548 231.335548-231.335548 231.335548 102.059801 231.335548 231.335548-105.461794 231.335548-231.335548 231.335549z" fill="#00ebff" p-id="4738"></path><path d="M758.644518 163.295681c-91.853821 0-163.295681 74.843854-163.295681 163.295681s74.843854 163.295681 163.295681 163.295681 163.295681-74.843854 163.295681-163.295681-74.843854-163.295681-163.295681-163.295681z m0 295.973422c-71.44186 0-132.677741-57.833887-132.677741-132.677741s57.833887-132.677741 132.677741-132.677741 132.677741 57.833887 132.677741 132.677741-61.23588 132.677741-132.677741 132.677741zM329.993355 197.315615c-71.44186 0-132.677741 57.833887-132.67774 132.67774s57.833887 132.677741 132.67774 132.677741 132.677741-57.833887 132.677741-132.677741-61.23588-132.677741-132.677741-132.67774z m0 34.019933c37.421927 0 68.039867 20.41196 85.049834 51.029901h-170.099667c17.009967-30.61794 47.627907-51.0299 85.049833-51.029901z m0 197.315615c-37.421927 0-68.039867-20.41196-85.049833-51.029901h170.099667c-17.009967 30.61794-51.0299 51.0299-85.049834 51.029901z m98.657808-98.657808v17.009967H231.335548v-17.009967-17.009966h193.913621c3.401993 6.803987 3.401993 10.20598 3.401994 17.009966zM574.936877 707.614618c-27.215947 0-51.0299 23.813953-51.0299 51.0299 0 13.607973 3.401993 23.813953 13.607973 34.019934l-40.82392 54.431894c-6.803987-3.401993-13.607973-3.401993-20.41196-3.401994-17.009967 0-30.61794 6.803987-44.225914 17.009967l-61.23588-51.0299c3.401993-10.20598 6.803987-20.41196 6.803986-34.019934 0-44.225914-37.421927-81.647841-81.64784-81.64784s-81.647841 37.421927-81.647841 81.64784c0 10.20598 3.401993 23.813953 6.803987 34.019934L166.697674 850.498339c-17.009967-17.009967-40.82392-27.215947-68.039867-27.215947-54.431894 0-98.657807 44.225914-98.657807 98.657807C0 976.372093 44.225914 1020.598007 98.657807 1020.598007s98.657807-44.225914 98.657808-98.657808c0-17.009967-3.401993-30.61794-10.20598-44.225913l54.431893-44.225914c13.607973 13.607973 34.019934 23.813953 57.833887 23.813954s40.82392-10.20598 57.833887-23.813954l61.235881 51.0299c-3.401993 6.803987-3.401993 13.607973-3.401994 20.411961 0 37.421927 30.61794 64.637874 64.637874 64.637873s64.637874-30.61794 64.637874-64.637873c0-17.009967-6.803987-30.61794-17.009967-44.225914l40.82392-54.431894h6.803987c27.215947 0 51.0299-23.813953 51.0299-51.0299s-23.813953-47.627907-51.0299-47.627907zM98.657807 986.578073C61.23588 986.578073 34.019934 959.362126 34.019934 921.940199c0-37.421927 30.61794-64.637874 64.637873-64.637873s64.637874 30.61794 64.637874 64.637873c0 37.421927-27.215947 64.637874-64.637874 64.637874z m197.315615-163.295681c-27.215947 0-51.0299-23.813953-51.0299-51.0299s23.813953-51.0299 51.0299-51.029901 51.0299 23.813953 51.0299 51.029901-23.813953 51.0299-51.0299 51.0299z m180.305648 115.667774c-17.009967 0-34.019934-13.607973-34.019934-34.019933 0-17.009967 13.607973-34.019934 34.019934-34.019934s34.019934 13.607973 34.019933 34.019934c0 17.009967-13.607973 34.019934-34.019933 34.019933z m98.657807-166.697674c-10.20598 0-17.009967-6.803987-17.009967-17.009967s6.803987-17.009967 17.009967-17.009967 17.009967 6.803987 17.009967 17.009967-6.803987 17.009967-17.009967 17.009967z" fill="#00ebff" p-id="4739"></path></svg>