<?xml version="1.0" standalone="no"?><!DOCTYPE svg PUBLIC "-//W3C//DTD SVG 1.1//EN" "http://www.w3.org/Graphics/SVG/1.1/DTD/svg11.dtd"><svg t="1733879718225" class="icon" viewBox="0 0 1024 1024" version="1.1" xmlns="http://www.w3.org/2000/svg" p-id="8091" xmlns:xlink="http://www.w3.org/1999/xlink" width="200" height="200"><path d="M880.7936 477.44L545.792 142.4896a49.408 49.408 0 0 0-69.888 0l-77.824 77.824L456.704 278.8864a71.936 71.936 0 0 1 95.8976 95.8976l95.8976 95.8976a71.936 71.936 0 1 1-33.8944 33.8944L518.656 408.6784a66.56 66.56 0 0 1-7.0144 2.9184v200.0384a71.936 71.936 0 1 1-47.9744 0V411.5968a71.936 71.936 0 0 1-40.9088-98.816L364.1856 254.208l-221.696 221.696a49.408 49.408 0 0 0 0 69.888l335.0016 334.9504a49.408 49.408 0 0 0 69.888 0l333.4144-333.4144a49.408 49.408 0 0 0 0-69.888z" fill="#d81e06" p-id="8092"></path></svg>