<?xml version="1.0" standalone="no"?><!DOCTYPE svg PUBLIC "-//W3C//DTD SVG 1.1//EN" "http://www.w3.org/Graphics/SVG/1.1/DTD/svg11.dtd"><svg t="1733138487467" class="icon" viewBox="0 0 1024 1024" version="1.1" xmlns="http://www.w3.org/2000/svg" p-id="4541" xmlns:xlink="http://www.w3.org/1999/xlink" width="200" height="200"><path d="M942.430822 234.624347l80.799899-80.799899L870.174912 0.768639l-80.799899 80.799899A509.631363 509.631363 0 0 0 511.99936 0.00064C229.247713 0.00064 0 229.248353 0 512c0 102.239872 29.951963 197.407753 81.567898 277.375653L0.767999 870.175552l153.055809 153.055809 80.799899-80.799899A509.631363 509.631363 0 0 0 511.99936 1023.99936c282.751647 0 511.99936-229.247713 511.99936-511.99936 0-102.239872-29.951963-197.407753-81.567898-277.375653zM194.943756 512c0-175.103781 141.951823-317.055604 317.055604-317.055604 47.99994 0 93.471883 10.655987 134.239832 29.791963L224.703719 646.271832A316.159605 316.159605 0 0 1 194.975756 512zM511.99936 829.055604c-47.99994 0-93.471883-10.655987-134.239832-29.791963l421.535473-421.535473a316.159605 316.159605 0 0 1 29.791963 134.239832c-0.032 175.135781-141.983823 317.087604-317.087604 317.087604z" fill="#DF0000" p-id="4542"></path></svg>