<?xml version="1.0" standalone="no"?><!DOCTYPE svg PUBLIC "-//W3C//DTD SVG 1.1//EN" "http://www.w3.org/Graphics/SVG/1.1/DTD/svg11.dtd"><svg t="1733794909398" class="icon" viewBox="0 0 1024 1024" version="1.1" xmlns="http://www.w3.org/2000/svg" p-id="7130" xmlns:xlink="http://www.w3.org/1999/xlink" width="200" height="200"><path d="M725.12 445.968a268.384 268.384 0 0 0-144.128-41.968H176v216h296.992c115.264 0 213.392-72.368 252.128-174.032" fill="#343741" p-id="7131"></path><path d="M788.544 501.36C732 618.768 611.792 700 472.992 700H176V944h404.992c149.136 0 270-120.896 270-270 0-65.68-23.472-125.84-62.448-172.64" fill="#00BFB3" p-id="7132"></path><path d="M725.12 445.968a268.752 268.752 0 0 0 17.872-95.968C742.992 200.88 622.128 80 472.992 80H176v324h404.992c53.072 0 102.4 15.52 144.128 41.968" fill="#0077CC" p-id="7133"></path></svg>